<?xml version="1.0" standalone="no"?>
<!DOCTYPE svg PUBLIC "-//W3C//DTD SVG 20010904//EN"
 "http://www.w3.org/TR/2001/REC-SVG-20010904/DTD/svg10.dtd">
<svg version="1.0" xmlns="http://www.w3.org/2000/svg"
 width="1280.000000pt" height="1280.000000pt" viewBox="0 0 1280.000000 1280.000000"
 preserveAspectRatio="xMidYMid meet">
<metadata>
Created by potrace 1.15, written by Peter Selinger 2001-2017
</metadata>
<g transform="translate(0.000000,1280.000000) scale(0.100000,-0.100000)"
fill="#000000" stroke="none">
<path d="M5845 11930 c-668 -60 -1270 -300 -1765 -704 -85 -70 -253 -233 -328
-320 -49 -56 -54 -60 -111 -67 -176 -24 -684 -70 -871 -78 -237 -11 -307 -24
-382 -72 -52 -34 -104 -104 -114 -155 -15 -83 80 -321 206 -514 99 -150 149
-209 407 -476 l243 -252 0 -53 c0 -89 19 -267 41 -384 59 -321 184 -631 367
-910 78 -119 216 -298 266 -344 14 -14 26 -30 26 -36 0 -17 -138 -147 -251
-237 -52 -41 -201 -150 -331 -242 -206 -145 -257 -176 -395 -240 -894 -412
-1518 -1056 -1793 -1851 -202 -584 -219 -1289 -46 -1874 190 -641 621 -1176
1253 -1557 560 -337 1289 -564 2113 -658 662 -76 1588 -76 2470 -1 1016 87
2117 304 2694 531 525 207 857 513 1331 1229 362 546 499 867 646 1520 57 252
61 303 45 555 -8 120 -7 128 19 210 31 95 74 186 146 307 69 113 96 176 114
263 65 306 77 752 30 1065 -55 364 -194 669 -407 891 -274 285 -582 318 -1006
105 -149 -75 -233 -124 -542 -320 -321 -202 -531 -322 -772 -441 -290 -143
-439 -187 -663 -197 -230 -11 -673 45 -805 101 -84 36 -76 21 -94 182 l-7 60
98 53 c242 132 460 296 659 495 154 155 229 245 340 412 386 579 511 1269 348
1933 -76 309 -229 628 -436 906 -111 149 -388 425 -543 541 -455 340 -977 544
-1570 614 -123 15 -508 21 -630 10z"/>
</g>
</svg>
